<svg width="24" height="24" viewBox="0 0 24 24" fill="none" xmlns="http://www.w3.org/2000/svg">
<g id="icon/outlined/suggested/plus">
<g id="Vector">
<path d="M11.2973 3.5625H12.7036C12.8286 3.5625 12.8911 3.625 12.8911 3.75V20.25C12.8911 20.375 12.8286 20.4375 12.7036 20.4375H11.2973C11.1723 20.4375 11.1098 20.375 11.1098 20.25V3.75C11.1098 3.625 11.1723 3.5625 11.2973 3.5625Z" fill="#1890FF"/>
<path d="M4.12501 11.1094H19.8759C20.0009 11.1094 20.0634 11.1719 20.0634 11.2969V12.7031C20.0634 12.8281 20.0009 12.8906 19.8759 12.8906H4.12501C4 12.8906 3.9375 12.8281 3.9375 12.7031V11.2969C3.9375 11.1719 4 11.1094 4.12501 11.1094Z" fill="#1890FF"/>
</g>
</g>
</svg>
