<svg width="21" height="23" viewBox="0 0 21 23" fill="none" xmlns="http://www.w3.org/2000/svg">
<path d="M6.675 11.75C7.275 8.6 8.1 7.775 11.25 7.175C11.625 7.1 11.85 6.8 11.85 6.425C11.85 6.05 11.625 5.75 11.25 5.675C8.1 5.075 7.275 4.25 6.675 1.1C6.6 0.725 6.3 0.5 5.925 0.5C5.55 0.5 5.25 0.725 5.175 1.1C4.575 4.25 3.75 5.075 0.6 5.675C0.3 5.75 0 6.05 0 6.425C0 6.8 0.225 7.1 0.6 7.175C3.75 7.775 4.575 8.6 5.175 11.75C5.25 12.125 5.55 12.35 5.925 12.35C6.3 12.35 6.6 12.05 6.675 11.75Z" fill="#5E5E5E"/>
<path d="M14.175 17C12.075 16.55 11.625 16.1 11.175 14C11.1 13.625 10.8 13.4 10.425 13.4C10.05 13.4 9.74995 13.625 9.67495 14C9.22495 16.1 8.77495 16.55 6.67495 17C6.29995 17.075 6.07495 17.375 6.07495 17.75C6.07495 18.125 6.29995 18.425 6.67495 18.5C8.77495 18.95 9.22495 19.4 9.67495 21.5C9.74995 21.875 10.05 22.1 10.425 22.1C10.8 22.1 11.1 21.875 11.175 21.5C11.625 19.4 12.075 18.95 14.175 18.5C14.55 18.425 14.775 18.125 14.775 17.75C14.775 17.375 14.475 17.075 14.175 17Z" fill="#5E5E5E"/>
<path d="M19.575 9.49995C17.925 9.19995 17.55 8.82495 17.25 7.17495C17.175 6.79995 16.875 6.57495 16.5 6.57495C16.125 6.57495 15.825 6.79995 15.75 7.17495C15.45 8.82495 15.075 9.19995 13.425 9.49995C13.05 9.57495 12.825 9.87495 12.825 10.25C12.825 10.625 13.05 10.925 13.425 11C15.075 11.3 15.45 11.675 15.75 13.325C15.825 13.7 16.125 13.925 16.5 13.925C16.875 13.925 17.175 13.7 17.25 13.325C17.55 11.675 17.925 11.3 19.575 11C19.95 10.925 20.175 10.625 20.175 10.25C20.175 9.87495 19.95 9.57495 19.575 9.49995Z" fill="#5E5E5E"/>
<path d="M1.95005 15.725C1.72505 15.5 1.42505 15.425 1.12505 15.575C1.05005 15.575 0.975049 15.65 0.900049 15.725C0.825049 15.8 0.750049 15.875 0.750049 15.95C0.675049 16.025 0.675049 16.175 0.675049 16.25C0.675049 16.325 0.675049 16.475 0.750049 16.55C0.825049 16.625 0.825049 16.7 0.900049 16.775C0.975049 16.85 1.05005 16.925 1.12505 16.925C1.20005 17 1.35005 17 1.42505 17C1.50005 17 1.65005 17 1.72505 16.925C1.80005 16.85 1.87505 16.85 1.95005 16.775C2.02505 16.7 2.10005 16.625 2.10005 16.55C2.17505 16.475 2.17505 16.325 2.17505 16.25C2.17505 16.175 2.17505 16.025 2.10005 15.95C2.10005 15.875 2.02505 15.8 1.95005 15.725Z" fill="#5E5E5E"/>
</svg>
